<svg xmlns="http://www.w3.org/2000/svg" xmlns:xlink="http://www.w3.org/1999/xlink" width="0" height="0" style="position:absolute">
    <symbol id="card" viewBox="0 0 438.5 350.8">
		<path d="M427.8,10.7C420.6,3.6,412,0,402,0H36.5c-10,0-18.6,3.6-25.8,10.7C3.6,17.9,0,26.5,0,36.5v277.7c0,10.1,3.6,18.7,10.7,25.8
		c7.2,7.2,15.8,10.7,25.8,10.7H402c10,0,18.6-3.6,25.8-10.7c7.2-7.2,10.7-15.8,10.7-25.8V36.5C438.5,26.5,435,17.9,427.8,10.7
		L427.8,10.7z M409.3,314.3c0,2-0.7,3.7-2.2,5.1c-1.4,1.4-3.2,2.2-5.1,2.2H36.5c-2,0-3.7-0.7-5.1-2.2c-1.4-1.4-2.2-3.2-2.2-5.1
		V175.4h380.1V314.3z M409.3,87.7H29.2V36.5c0-2,0.7-3.7,2.2-5.1c1.4-1.4,3.2-2.2,5.1-2.2H402c2,0,3.7,0.7,5.1,2.2
		c1.4,1.4,2.2,3.2,2.2,5.1V87.7z M409.3,87.7"/>
        <rect x="58.5" y="263.1" width="58.5" height="29.2"/>
        <rect x="146.2" y="263.1" width="87.7" height="29.2"/>
    </symbol>
    <symbol id="castle" viewBox="0 0 409.6 374.4">
		<path d="M402.8,335.2h-35.7l1.6-47.6c0-0.7-0.1-1.4-0.3-2.1l-15.6-55.2c-0.8-2.9-3.5-4.9-6.5-4.9c-2.2,0-4.2,1.1-5.5,2.8
		l-19.3-67.3c-0.8-2.9-3.5-4.9-6.5-4.9h0c-3,0-5.7,2-6.5,4.9l-9.1,32.2l-9.1-32.2c-0.8-2.9-3.5-4.9-6.5-4.9h0c-3,0-5.7,2-6.5,5
		l-4.4,16.2l-2-72.2c-0.1-3.3-2.6-6.1-5.9-6.5c-3.3-0.4-6.4,1.7-7.3,4.9l-9,31.8l-7.5-82.7c-0.3-3.5-3.2-6.1-6.7-6.1
		c-3.5-0.1-6.4,2.6-6.8,6l-13.8,120.8l-2.4-13.3c-0.6-3.2-3.4-5.5-6.6-5.5c-3.3,0-6.1,2.3-6.6,5.5l-2.4,13.3L181.9,52.2
		c-0.4-3.4-3.3-6-6.7-6h-0.1c-3.5,0-6.3,2.7-6.7,6.1L161,135l-9-31.8c-0.9-3.2-4-5.3-7.3-4.9c-3.3,0.4-5.8,3.2-5.9,6.5l-2,72.2
		l-4.4-16.2c-0.8-2.9-3.5-5-6.5-5h0c-3,0-5.7,2-6.5,4.9l-9.1,32.2l-9.1-32.2c-0.8-2.9-3.5-4.9-6.5-4.9h0c-3,0-5.7,2-6.5,4.9
		l-19.3,67.3c-1.2-1.7-3.3-2.8-5.5-2.8c-3,0-5.7,2-6.5,4.9l-15.6,55.2c-0.2,0.7-0.3,1.4-0.3,2.1l1.6,47.6H6.8c-3.7,0-6.8,3-6.8,6.8
		c0,3.7,3,6.8,6.8,6.8h396.1c3.7,0,6.8-3,6.8-6.8C409.6,338.2,406.6,335.2,402.8,335.2L402.8,335.2z M134.7,335.2H56l-1.6-47
		l8.8-31.2l9.1,32.2c0.8,2.9,3.5,4.9,6.5,4.9c3,0,5.7-2,6.5-4.9l9.1-32.2l9.1,32.2c0.8,2.9,3.5,4.9,6.5,4.9c3,0,5.7-2,6.5-4.9
		l9.1-32.2l8.9,31.3L134.7,335.2L134.7,335.2z M135,240l-2.7-9.7c-0.8-2.9-3.5-4.9-6.5-4.9c-3,0-5.7,2-6.5,4.9l-9.1,32.2l-9.1-32.2
		c-0.8-2.9-3.5-4.9-6.5-4.9s-5.7,2-6.5,4.9l-9.1,32.2L76,252.2l18.5-64.7l9.2,32.3c0.8,2.9,3.5,4.9,6.5,4.9c3,0,5.7-2,6.5-4.9
		l9-31.8l9.8,35.7L135,240z M169.1,318v17.2h-20.9v-29.8l12.7-44.8l11.3,40C172.2,300.6,169.1,317.6,169.1,318L169.1,318z
		 M167.4,233.9c-0.8-2.9-3.5-4.9-6.5-4.9c-3,0-5.7,2-6.5,4.9l-6.2,21.9v-1.7l2.9-104.6l6.9,24.3c0.9,3.1,3.9,5.2,7.1,4.9
		c3.2-0.3,5.8-2.9,6.1-6.1l4.8-53.3l11.3,99.4l-9.6,51.9L167.4,233.9z M208.6,335.2h-8.1v-5.9c0-2.2,1.8-4.1,4.1-4.1
		c2.2,0,4.1,1.8,4.1,4.1V335.2z M227,335.2h-4.8v-5.9c0-9.7-7.9-17.6-17.6-17.6c-9.7,0-17.6,7.9-17.6,17.6v5.9h-4.4v-16.6
		l22.2-120.3L227,318.6V335.2z M222.3,218.7l11.3-99.4l4.8,53.3c0.3,3.2,2.9,5.8,6.1,6.1c3.2,0.3,6.2-1.8,7.1-4.9l6.9-24.3
		l2.8,104.6v1.7l-6.2-21.9c-0.8-2.9-3.5-4.9-6.5-4.9c-3,0-5.7,2-6.5,4.9l-10.4,36.6L222.3,218.7z M261.4,335.2h-21V318
		c0-0.4-3.1-17.3-3.1-17.3l11.3-40.1l12.7,44.8V335.2z M274.1,223.6l9.8-35.7l9,31.8c0.8,2.9,3.5,4.9,6.5,4.9c3,0,5.7-2,6.5-4.9
		l9.2-32.3l18.5,64.7l-2.9,10.3l-9.1-32.2c-0.8-2.9-3.5-4.9-6.5-4.9c-3,0-5.7,2-6.5,4.9l-9.1,32.2l-9.1-32.2
		c-0.8-2.9-3.5-4.9-6.5-4.9c-3,0-5.7,2-6.5,4.9l-2.7,9.7L274.1,223.6z M353.6,335.2h-78.6v-46.9l8.9-31.3l9.1,32.2
		c0.8,2.9,3.5,4.9,6.5,4.9c3,0,5.7-2,6.5-4.9l9.1-32.2l9.1,32.2c0.8,2.9,3.5,4.9,6.5,4.9c3,0,5.7-2,6.5-4.9l9.1-32.2l8.8,31.2
		L353.6,335.2z M353.6,335.2"/>
        <path d="M402.8,360.9H6.8c-3.7,0-6.8,3-6.8,6.8c0,3.7,3,6.8,6.8,6.8h396.1c3.7,0,6.8-3,6.8-6.8
            C409.6,363.9,406.6,360.9,402.8,360.9L402.8,360.9z M402.8,360.9"/>
        <path d="M77.9,0c-28.7,0-52,23.3-52,52c0,28.7,23.3,52,52,52c28.7,0,52-23.3,52-52C129.9,23.3,106.6,0,77.9,0L77.9,0z M77.9,90.6
            c-21.2,0-38.5-17.3-38.5-38.5c0-21.2,17.3-38.5,38.5-38.5c21.2,0,38.5,17.3,38.5,38.5C116.4,73.3,99.1,90.6,77.9,90.6L77.9,90.6z
            M77.9,90.6"/>
        <path d="M249.6,198c0,3.7-3,6.8-6.8,6.8c-3.7,0-6.8-3-6.8-6.8c0-3.7,3-6.8,6.8-6.8C246.6,191.2,249.6,194.2,249.6,198L249.6,198z
            M249.6,198"/>
        <path d="M173.4,197.8c0,3.7-3,6.8-6.8,6.8c-3.7,0-6.8-3-6.8-6.8c0-3.7,3-6.8,6.8-6.8C170.4,191.1,173.4,194.1,173.4,197.8
            L173.4,197.8z M173.4,197.8"/>
        <path d="M73.4,307.9c0,3.7-3,6.8-6.8,6.8c-3.7,0-6.8-3-6.8-6.8c0-3.7,3-6.8,6.8-6.8C70.3,301.2,73.4,304.2,73.4,307.9L73.4,307.9z
            M73.4,307.9"/>
        <path d="M101.3,307.9c0,3.7-3,6.8-6.8,6.8c-3.7,0-6.8-3-6.8-6.8c0-3.7,3-6.8,6.8-6.8C98.3,301.2,101.3,304.2,101.3,307.9
            L101.3,307.9z M101.3,307.9"/>
        <path d="M129.2,307.9c0,3.7-3,6.8-6.8,6.8c-3.7,0-6.8-3-6.8-6.8c0-3.7,3-6.8,6.8-6.8C126.2,301.2,129.2,304.2,129.2,307.9
            L129.2,307.9z M129.2,307.9"/>
        <path d="M293.9,307.9c0,3.7-3,6.8-6.8,6.8c-3.7,0-6.8-3-6.8-6.8c0-3.7,3-6.8,6.8-6.8C290.9,301.2,293.9,304.2,293.9,307.9
            L293.9,307.9z M293.9,307.9"/>
        <path d="M321.8,307.9c0,3.7-3,6.8-6.8,6.8c-3.7,0-6.8-3-6.8-6.8c0-3.7,3-6.8,6.8-6.8C318.8,301.2,321.8,304.2,321.8,307.9
            L321.8,307.9z M321.8,307.9"/>
        <path d="M349.8,307.9c0,3.7-3,6.8-6.8,6.8c-3.7,0-6.8-3-6.8-6.8c0-3.7,3-6.8,6.8-6.8C346.7,301.2,349.8,304.2,349.8,307.9
            L349.8,307.9z M349.8,307.9"/>
    </symbol>
    <symbol id="home" viewBox="0 0 409.6 409.6">
		<path d="M393.6,153.6c8.8,0,16-7.2,16-16V76.8c0-6.9-4.5-13.1-11.1-15.2L209.7,0.8c-3.2-1-6.6-1-9.8,0L11.1,61.6
		C4.5,63.7,0,69.9,0,76.8v60.8c0,8.8,7.2,16,16,16h24v163.2H16c-8.8,0-16,7.2-16,16v60.8c0,8.8,7.2,16,16,16h377.6
		c8.8,0,16-7.2,16-16v-60.8c0-8.8-7.2-16-16-16h-24V153.6H393.6z M377.6,348.8v28.8H32v-28.8H377.6z M72,316.8V153.6h28.8v163.2H72z
		 M132.8,316.8V153.6h25.6v163.2H132.8z M190.4,316.8V153.6h28.8v163.2H190.4z M251.2,316.8V153.6h25.6v163.2H251.2z M308.8,316.8
		V153.6h28.8v163.2H308.8z M32,121.6V88.5l172.8-55.6l172.8,55.6v33.1H32z M32,121.6"/>
	    <path d="M224.8,84.8c0,11-9,20-20,20c-11,0-20-9-20-20c0-11,9-20,20-20C215.8,64.8,224.8,73.8,224.8,84.8L224.8,84.8z M224.8,84.8"/>
    </symbol>
    <symbol id="list" viewBox="0 0 288 409.6">
		<path d="M272,0H16C7.2,0,0,7.2,0,16v377.6c0,8.8,7.2,16,16,16h179.2c4.2,0,8.3-1.7,11.3-4.7l76.8-76.8c3-3,4.7-7.1,4.7-11.3V16
		C288,7.2,280.8,0,272,0L272,0z M256,310.2l-67.4,67.4H32V32h224V310.2z M256,310.2"/>
        <path d="M208,64H80c-8.8,0-16,7.2-16,16c0,8.8,7.2,16,16,16h128c8.8,0,16-7.2,16-16C224,71.2,216.8,64,208,64L208,64z M208,64"/>
        <path d="M208,128H80c-8.8,0-16,7.2-16,16c0,8.8,7.2,16,16,16h128c8.8,0,16-7.2,16-16C224,135.2,216.8,128,208,128L208,128z M208,128"/>
    </symbol>
    <symbol id="phone" viewBox="0 0 203 378.2">
		<path d="M183.3,0H19.7C8.8,0,0,8.5,0,19v340.3c0,10.4,8.8,18.9,19.7,18.9h163.6c10.9,0,19.7-8.5,19.7-18.9V19
		C203,8.5,194.1,0,183.3,0L183.3,0z M72.9,29.5H130v4H72.9V29.5z M101.5,358.4c-6.1,0-11-4.9-11-11c0-6.1,4.9-11,11-11s11,4.9,11,11
		C112.5,353.5,107.6,358.4,101.5,358.4L101.5,358.4z M189.5,317.2H13.5V56.3h176.1V317.2z M189.5,317.2"/>
    </symbol>
    <symbol id="wallet" viewBox="0 0 405 320">
		<path d="M393.6,96H368V48c0-26.5-21.5-48-48-48H48C21.5,0,0,21.5,0,48v224c0,26.5,21.5,48,48,48h272c26.5,0,48-21.5,48-48v-48h25.6
		c8.8,0,16-7.2,16-16v-96C409.6,103.2,402.4,96,393.6,96L393.6,96z M336,272c0,8.8-7.2,16-16,16H48c-8.8,0-16-7.2-16-16V48
		c0-8.8,7.2-16,16-16h272c8.8,0,16,7.2,16,16v48h-64c-8.8,0-16,7.2-16,16v96c0,8.8,7.2,16,16,16h64V272z M377.6,192H288v-64h89.6
		V192z M377.6,192"/>
	    <path d="M348.8,160c0,8.8-7.2,16-16,16s-16-7.2-16-16s7.2-16,16-16S348.8,151.2,348.8,160L348.8,160z M348.8,160"/>
    </symbol>
    <symbol id="in" viewBox="0 0 72 68.8">
		<path d="M72,42.18V68.8H56.57V44c0-6.24-2.23-10.5-7.82-10.5a8.44,8.44,0,0,0-7.92,5.64,10.57,10.57,0,0,0-.51,3.76V68.8H24.88s.21-42.07,0-46.42H40.32V29l-.1.15h.1V29c2.05-3.16,5.71-7.67,13.91-7.67C64.39,21.29,72,27.92,72,42.18ZM8.73,0C3.45,0,0,3.46,0,8s3.35,8,8.53,8h.1c5.38,0,8.73-3.57,8.73-8S14,0,8.73,0ZM.92,68.8H16.35V22.38H.92Zm0,0"/>
    </symbol>
    <symbol id="fb" viewBox="0 0 41.58 76.9">
		<path d="M40.67,0h-10C19.5,0,12.26,7.43,12.26,18.92v8.73h-10A1.57,1.57,0,0,0,.66,29.22V41.86a1.57,1.57,0,0,0,1.57,1.57h10v31.9a1.57,1.57,0,0,0,1.57,1.57H26.91a1.57,1.57,0,0,0,1.57-1.57V43.43H40.19a1.57,1.57,0,0,0,1.57-1.57V29.22a1.57,1.57,0,0,0-1.57-1.57H28.47v-7.4c0-3.55.85-5.36,5.48-5.36h6.71a1.57,1.57,0,0,0,1.57-1.57V1.59A1.57,1.57,0,0,0,40.67,0Zm0,0"/>
    </symbol>
    <symbol id="youtube" viewBox="0 0 461 326.22">
		<path d="M365.26,0H95.74A95.74,95.74,0,0,0,0,95.74V230.47a95.74,95.74,0,0,0,95.74,95.74H365.26A95.74,95.74,0,0,0,461,230.47V95.74A95.74,95.74,0,0,0,365.26,0ZM300.51,169.66,174.45,229.79a5.06,5.06,0,0,1-7.24-4.57v-124a5.06,5.06,0,0,1,7.35-4.51l126.06,63.88A5.06,5.06,0,0,1,300.51,169.66Z"/>
    </symbol>
    <symbol id="telegram" viewBox="0 0 240 208.96">
		<path d="M4.24,100.71l55.3,20.64,21.41,68.84a6.51,6.51,0,0,0,10.34,3.11l30.82-25.13a9.2,9.2,0,0,1,11.21-.31l55.6,40.37a6.52,6.52,0,0,0,10.21-3.94L239.86,8.38A6.52,6.52,0,0,0,231.13,1L4.18,88.52a6.52,6.52,0,0,0,.06,12.19Zm73.26,9.65L185.57,43.8a1.88,1.88,0,0,1,2.27,3l-89.2,82.91a18.47,18.47,0,0,0-5.73,11.06l-3,22.52a2.79,2.79,0,0,1-5.46.4L72.74,122.61a10.88,10.88,0,0,1,4.75-12.24Zm0,0"/>
    </symbol>
    <symbol id="mess" viewBox="0 0 185.38 160.68">
		<path d="M92.73,0C41.52,0,0,32.66,0,72.87c0,19,9.3,36.42,24.56,49.41-.58,12.61-3.23,29.61-12.48,38.4,17.73,0,35.84-11.7,46.56-20a116,116,0,0,0,34.08,5c51.13,0,92.65-32.59,92.65-72.82S143.86,0,92.73,0Zm0,0"/>
    </symbol>
    <symbol id="tw" viewBox="0 0 489.6 397.69">
		<path d="M489.6,47.05a200.65,200.65,0,0,1-57.67,15.82A100.87,100.87,0,0,0,476.08,7.34a202.57,202.57,0,0,1-63.82,24.38,100.51,100.51,0,0,0-171.14,91.57,285.14,285.14,0,0,1-207-104.94A100.55,100.55,0,0,0,65.19,152.42a100.45,100.45,0,0,1-45.49-12.6v1.25a100.53,100.53,0,0,0,80.56,98.48,101.65,101.65,0,0,1-26.47,3.52,96.16,96.16,0,0,1-18.91-1.87A100.49,100.49,0,0,0,148.69,311,201.51,201.51,0,0,1,24,353.88a213.52,213.52,0,0,1-24-1.37,283.92,283.92,0,0,0,154,45.19c184.76,0,285.75-153,285.75-285.75l-.34-13A200.63,200.63,0,0,0,489.6,47.05Zm0,0"/>
    </symbol>
    <symbol id="presale" viewBox="0 0 455.3 457">
        <style type="text/css">
            .st022134{fill:none;stroke:#010101;stroke-width:16;stroke-miterlimit:10;}
        </style>
        <g>
            <path d="M228.9,26.9C116,26.9,24.1,118.8,24.1,231.7S116,436.5,228.9,436.5s204.8-91.9,204.8-204.8S341.8,26.9,228.9,26.9
                L228.9,26.9z M228.9,422.8c-105.4,0-191.1-85.8-191.1-191.1c0-105.4,85.8-191.1,191.1-191.1c105.4,0,191.1,85.8,191.1,191.1
                C420,337.1,334.3,422.8,228.9,422.8L228.9,422.8z M228.9,422.8"/>
            <path d="M228.9,61c-94.1,0-170.7,76.6-170.7,170.7c0,94.1,76.6,170.7,170.7,170.7c94.1,0,170.7-76.6,170.7-170.7
                C399.6,137.6,323,61,228.9,61L228.9,61z M228.9,388.7c-86.6,0-157-70.4-157-157c0-86.6,70.4-157,157-157c86.6,0,157,70.4,157,157
                C385.9,318.3,315.5,388.7,228.9,388.7L228.9,388.7z M228.9,388.7"/>
            <path d="M294.9,154.8"/>
            <path d="M358.2,188.5"/>
            <path d="M325.2,205.2"/>
        </g>
        <polygon class="st022134" points="302.3,249.2 228.1,316.4 155.5,249.2 155.5,159.6 228.3,226.8 302.3,159.6 "/>
    </symbol>
    <symbol id="launch" viewBox="0 0 274.9 269.9">
         <g>
            <path d="M243.6,6.3C231.7,6.3,222,16,222,27.9c0,11.9,9.6,21.6,21.6,21.6c12,0,21.6-9.6,21.6-21.6C265.2,16,255.6,6.3,243.6,6.3
                L243.6,6.3z M243.6,38.4c-5.8,0-10.5-4.7-10.5-10.5c0-5.8,4.7-10.5,10.5-10.5c5.8,0,10.5,4.7,10.5,10.5
                C254.1,33.7,249.4,38.4,243.6,38.4L243.6,38.4z M243.6,38.4"/>
            <path d="M29.6,129.4C17.6,129.4,8,139,8,151c0,11.9,9.6,21.6,21.6,21.6c11.9,0,21.6-9.6,21.6-21.6C51.2,139,41.5,129.4,29.6,129.4
                L29.6,129.4z M29.6,161.5c-5.8,0-10.5-4.7-10.5-10.5c0-5.8,4.7-10.5,10.5-10.5c5.8,0,10.5,4.7,10.5,10.5
                C40.1,156.8,35.4,161.5,29.6,161.5L29.6,161.5z M29.6,161.5"/>
            <path d="M93.8,65.2c-12,0-21.6,9.6-21.6,21.6c0,11.9,9.6,21.6,21.6,21.6c11.9,0,21.6-9.6,21.6-21.6
                C115.3,74.9,105.7,65.2,93.8,65.2L93.8,65.2z M93.8,97.3c-5.8,0-10.5-4.7-10.5-10.5c0-5.8,4.7-10.5,10.5-10.5
                c5.8,0,10.5,4.7,10.5,10.5C104.3,92.6,99.6,97.3,93.8,97.3L93.8,97.3z M93.8,97.3"/>
            <path d="M139.2,110.7c-11.9,0-21.6,9.6-21.6,21.6c0,11.9,9.6,21.6,21.6,21.6c11.9,0,21.6-9.6,21.6-21.6
                C160.8,120.3,151.2,110.7,139.2,110.7L139.2,110.7z M139.2,142.8c-5.8,0-10.5-4.7-10.5-10.5c0-5.8,4.7-10.5,10.5-10.5
                s10.5,4.7,10.5,10.5C149.7,138.1,145,142.8,139.2,142.8L139.2,142.8z M139.2,142.8"/>
            <path d="M146.7,117l81.6-81.7l7.9,7.8l-81.6,81.7L146.7,117z M146.7,117"/>
            <path d="M101.2,102.1l7.8-7.9l22.9,22.8l-7.8,7.9L101.2,102.1z M101.2,102.1"/>
            <path d="M37.1,135.7l41.5-41.5l7.8,7.8l-41.5,41.5L37.1,135.7z M37.1,135.7"/>
            <rect x="8.2" y="252.4" width="256.9" height="11.1"/>
            <rect x="238.1" y="97.5" width="11.1" height="160.5"/>
            <rect x="136.4" y="177.8" width="11.1" height="80.2"/>
            <rect x="24" y="193.8" width="11.1" height="64.2"/>
            <rect x="88.2" y="145.6" width="11.1" height="112.4"/>
        </g>
    </symbol>
    <symbol id="volinex" viewBox="0 0 666 721">
        <style type="text/css">
            .st0{fill:none;stroke:#010101;stroke-width:27;stroke-miterlimit:10;}
        </style>
        <polygon class="st0" points="604,377.1 315.4,638.5 33.3,377.1 33.3,28.6 316.4,290 604,28.6 "/>
    </symbol>
</svg>